<mxfile host="app.diagrams.net" modified="2023-12-06T22:14:14.106Z" agent="Mozilla/5.0 (Windows NT 10.0; Win64; x64) AppleWebKit/537.36 (KHTML, like Gecko) Chrome/119.0.0.0 Safari/537.36" etag="LdhEEWEP57YEEwEYpRPl" version="22.1.5" type="device">
  <diagram id="FiXUJnzLlhFP-MB1lQGa" name="Page-1">
    <mxGraphModel dx="882" dy="578" grid="1" gridSize="10" guides="1" tooltips="1" connect="1" arrows="1" fold="1" page="1" pageScale="1" pageWidth="850" pageHeight="1100" math="0" shadow="0">
      <root>
        <mxCell id="0" />
        <mxCell id="1" parent="0" />
        <mxCell id="5nBwBBopsHFFPuSzddUd-1" value="Nudity probability" style="rounded=1;whiteSpace=wrap;html=1;" vertex="1" parent="1">
          <mxGeometry x="240" y="280" width="120" height="60" as="geometry" />
        </mxCell>
        <mxCell id="5nBwBBopsHFFPuSzddUd-14" style="edgeStyle=orthogonalEdgeStyle;rounded=0;orthogonalLoop=1;jettySize=auto;html=1;exitX=0.5;exitY=1;exitDx=0;exitDy=0;entryX=0.5;entryY=0;entryDx=0;entryDy=0;" edge="1" parent="1" source="5nBwBBopsHFFPuSzddUd-3" target="5nBwBBopsHFFPuSzddUd-8">
          <mxGeometry relative="1" as="geometry" />
        </mxCell>
        <mxCell id="5nBwBBopsHFFPuSzddUd-3" value="Model1" style="rounded=1;whiteSpace=wrap;html=1;" vertex="1" parent="1">
          <mxGeometry x="80" y="160" width="120" height="60" as="geometry" />
        </mxCell>
        <mxCell id="5nBwBBopsHFFPuSzddUd-10" style="edgeStyle=orthogonalEdgeStyle;rounded=0;orthogonalLoop=1;jettySize=auto;html=1;exitX=0.25;exitY=1;exitDx=0;exitDy=0;entryX=0.5;entryY=0;entryDx=0;entryDy=0;" edge="1" parent="1" source="5nBwBBopsHFFPuSzddUd-5" target="5nBwBBopsHFFPuSzddUd-3">
          <mxGeometry relative="1" as="geometry" />
        </mxCell>
        <mxCell id="5nBwBBopsHFFPuSzddUd-12" style="edgeStyle=orthogonalEdgeStyle;rounded=0;orthogonalLoop=1;jettySize=auto;html=1;exitX=0.5;exitY=1;exitDx=0;exitDy=0;entryX=0.5;entryY=0;entryDx=0;entryDy=0;" edge="1" parent="1" source="5nBwBBopsHFFPuSzddUd-5" target="5nBwBBopsHFFPuSzddUd-6">
          <mxGeometry relative="1" as="geometry" />
        </mxCell>
        <mxCell id="5nBwBBopsHFFPuSzddUd-13" style="edgeStyle=orthogonalEdgeStyle;rounded=0;orthogonalLoop=1;jettySize=auto;html=1;exitX=0.75;exitY=1;exitDx=0;exitDy=0;" edge="1" parent="1" source="5nBwBBopsHFFPuSzddUd-5" target="5nBwBBopsHFFPuSzddUd-7">
          <mxGeometry relative="1" as="geometry" />
        </mxCell>
        <mxCell id="5nBwBBopsHFFPuSzddUd-5" value="Fused features" style="rounded=1;whiteSpace=wrap;html=1;" vertex="1" parent="1">
          <mxGeometry x="80" y="40" width="440" height="40" as="geometry" />
        </mxCell>
        <mxCell id="5nBwBBopsHFFPuSzddUd-15" style="edgeStyle=orthogonalEdgeStyle;rounded=0;orthogonalLoop=1;jettySize=auto;html=1;exitX=0.5;exitY=1;exitDx=0;exitDy=0;entryX=0.5;entryY=0;entryDx=0;entryDy=0;" edge="1" parent="1" source="5nBwBBopsHFFPuSzddUd-6" target="5nBwBBopsHFFPuSzddUd-1">
          <mxGeometry relative="1" as="geometry" />
        </mxCell>
        <mxCell id="5nBwBBopsHFFPuSzddUd-6" value="Model2" style="rounded=1;whiteSpace=wrap;html=1;" vertex="1" parent="1">
          <mxGeometry x="240" y="160" width="120" height="60" as="geometry" />
        </mxCell>
        <mxCell id="5nBwBBopsHFFPuSzddUd-16" style="edgeStyle=orthogonalEdgeStyle;rounded=0;orthogonalLoop=1;jettySize=auto;html=1;exitX=0.5;exitY=1;exitDx=0;exitDy=0;entryX=0.5;entryY=0;entryDx=0;entryDy=0;" edge="1" parent="1" source="5nBwBBopsHFFPuSzddUd-7" target="5nBwBBopsHFFPuSzddUd-9">
          <mxGeometry relative="1" as="geometry" />
        </mxCell>
        <mxCell id="5nBwBBopsHFFPuSzddUd-7" value="Model3" style="rounded=1;whiteSpace=wrap;html=1;" vertex="1" parent="1">
          <mxGeometry x="400" y="160" width="120" height="60" as="geometry" />
        </mxCell>
        <mxCell id="5nBwBBopsHFFPuSzddUd-8" value="Violence probability" style="rounded=1;whiteSpace=wrap;html=1;" vertex="1" parent="1">
          <mxGeometry x="80" y="280" width="120" height="60" as="geometry" />
        </mxCell>
        <mxCell id="5nBwBBopsHFFPuSzddUd-9" value="Hate probability" style="rounded=1;whiteSpace=wrap;html=1;" vertex="1" parent="1">
          <mxGeometry x="400" y="280" width="120" height="60" as="geometry" />
        </mxCell>
      </root>
    </mxGraphModel>
  </diagram>
</mxfile>
